<svg width="243" height="253" viewBox="0 0 243 253" xmlns="http://www.w3.org/2000/svg"><title>Athenaeum Logo</title><path d="M218.202 241.274l-.006.002-.003-.006.006.003c-11.29-5.5-18.308-16.794-25.37-32.248l-30.222-69.28h.056s9.603.038 17.435.185c25.267.474 55.16 14.156 59.348 48.77 2.64 21.824-5.198 43.63-21.246 52.574m23.984-49.546c-2.234-36.764-32.346-53.87-61.992-54.497-6.612-.14-18.706-.182-18.706-.182h-.057L101.65 0 74.697 59.686l30.27 77.362h-.064s-15.258-.39-23.996.142c-19.895 1.214-33.992 6.14-42.797 11.48C18.623 160.488 2.734 178.26.245 202.034c-1.05 10.02 1.385 23.28 5.14 29.982 8.857 15.806 25.497 23.59 43.725 20.045 16.673-3.24 29.174-18.526 35.933-32.83-31.45-.003-42.126-21.816-42.126-38.852 0-30.802 28.363-38.615 44.962-40.262 7.852-.778 18.08-.37 18.08-.37h.062l24.34 62.21c1.698 4.375 6.79 16.156 6.79 23.9 0 17.166-17.316 18.848-29.877 20.194v3.03h91.068c8.727 0 15.628-1.888 21.258-5.21.618-.364 1.22-.744 1.807-1.142 4.95-3.354 8.858-7.887 12.162-13.244 4.916-7.967 9.626-21.125 8.616-37.756" fill="#A9A39C" fill-rule="evenodd"/></svg>
