<svg xmlns="http://www.w3.org/2000/svg" height="377.947" width="396.853"><defs><clipPath id="a"><path d="M0 283.46h297.64V0H0z"/></clipPath></defs><g clip-path="url(#a)" transform="matrix(1.33333 0 0 -1.33333 0 377.947)"><path d="M227.95 140.001c0-43.094-34.935-78.028-78.029-78.028-43.094 0-78.028 34.934-78.028 78.028 0 43.095 34.934 78.029 78.028 78.029 43.094 0 78.028-34.934 78.028-78.029" fill="#e31f25"/><path d="M227.95 140.001c0-43.094-34.935-78.028-78.029-78.028-43.094 0-78.028 34.934-78.028 78.028 0 43.095 34.934 78.029 78.028 78.029 43.094 0 78.028-34.934 78.028-78.029z" fill="none" stroke="#e31f25" stroke-miterlimit="10"/><path d="M222.129 139.625c0-39.671-32.161-71.832-71.833-71.832s-71.833 32.161-71.833 71.832c0 39.673 32.16 71.835 71.833 71.835 39.672 0 71.833-32.162 71.833-71.835z" fill="none" stroke="#fff" stroke-width=".5" stroke-miterlimit="10"/><path d="M99.36 182.14l16.654.007v-3.474h-5.55v-33.48h-5.392v33.48h-5.71z" fill="#fff"/><path d="M99.36 182.14l16.654.007v-3.474h-5.55v-33.48h-5.392v33.48h-5.71z" fill="none" stroke="#fff" stroke-width=".25" stroke-miterlimit="10"/><path d="M112.936 172.667h4.776v-1.58s2.684 2.21 5.37 1.817v-4.895h-1.659s-3.553-.158-3.474-2.526c.066-1.975 0-20.212 0-20.212h-5.013z" fill="#fff"/><path d="M112.936 172.667h4.776v-1.58s2.684 2.21 5.37 1.817v-4.895h-1.659s-3.553-.158-3.474-2.526c.066-1.975 0-20.212 0-20.212h-5.013z" fill="none" stroke="#fff" stroke-width=".25" stroke-miterlimit="10"/><path d="M138.164 172.746h5.21l3.08-17.605 2.842 17.526h3.315l-5.052-27.474h-4.026z" fill="#fff"/><path d="M138.164 172.746h5.21l3.08-17.605 2.842 17.526h3.315l-5.052-27.474h-4.026z" fill="none" stroke="#fff" stroke-width=".25" stroke-miterlimit="10"/><path d="M159.773 171.009s2.132-.08 2.21-4.026c.079-3.948 0-6.08 0-6.08h-4.421v6.158s-.08 3.948 2.21 3.948m2.369-14.526v-6.08s-.08-3.315-2.21-3.236c-2.132.078-2.37 3.237-2.37 3.237v8.289h9.949c.789 14.92-7.658 14.368-7.658 14.368-8.211-1.026-7.658-11.763-7.658-11.763s-1.026-16.658 7.815-16.342c8.843.316 7.422 11.527 7.422 11.527z" fill="#fff"/><path d="M159.773 171.009s2.132-.08 2.21-4.026c.079-3.948 0-6.08 0-6.08h-4.421v6.158s-.08 3.948 2.21 3.948zm2.368-14.526v-6.08s-.08-3.315-2.21-3.236c-2.133.078-2.37 3.237-2.37 3.237v8.289h9.948c.79 14.92-7.657 14.368-7.657 14.368-8.211-1.026-7.658-11.763-7.658-11.763s-1.026-16.658 7.815-16.342c8.843.316 7.422 11.527 7.422 11.527z" fill="none" stroke="#fff" stroke-width=".25" stroke-miterlimit="10"/><path d="M182.73 171.009s2.133-.08 2.212-4.026c.079-3.948 0-6.08 0-6.08h-4.421v6.158s-.08 3.948 2.21 3.948m2.369-14.526v-6.08s-.08-3.315-2.211-3.236c-2.132.078-2.368 3.237-2.368 3.237v8.289h9.947c.789 14.92-7.658 14.368-7.658 14.368-8.21-1.026-7.658-11.763-7.658-11.763s-1.025-16.658 7.816-16.342c8.842.316 7.42 11.527 7.42 11.527z" fill="#fff"/><path d="M182.73 171.009s2.133-.08 2.212-4.026c.079-3.948 0-6.08 0-6.08h-4.421v6.158s-.08 3.948 2.21 3.948zm2.37-14.526v-6.08s-.08-3.315-2.211-3.236c-2.133.078-2.369 3.237-2.369 3.237v8.289h9.947c.79 14.92-7.658 14.368-7.658 14.368-8.21-1.026-7.657-11.763-7.657-11.763s-1.025-16.658 7.816-16.342c8.842.316 7.42 11.527 7.42 11.527z" fill="none" stroke="#fff" stroke-width=".25" stroke-miterlimit="10"/><path d="M168.926 182.456h4.815v-37.264h-4.815z" fill="#fff" stroke="#fff" stroke-width=".25" stroke-miterlimit="10"/><path d="M191.709 172.982h4.776v-1.579s2.684 2.21 5.369 1.816v-4.895h-1.659s-3.45-.157-3.473-2.527c-.02-1.973 0-20.605 0-20.605h-5.013z" fill="#fff"/><path d="M191.709 172.982h4.776v-1.579s2.684 2.21 5.369 1.816v-4.895h-1.659s-3.45-.157-3.473-2.527c-.02-1.973 0-20.605 0-20.605h-5.013z" fill="none" stroke="#fff" stroke-width=".25" stroke-miterlimit="10"/><path d="M133.071 150.903s-.21-2.344-2.052-2.369c-1.974-.026-2.448 2.106-2.448 2.106v6.658s.053.868.553 1.421c.5.552 3.237 2.026 3.947 2.658zm-1.947 22.08c-8.21-.159-7.106-8.514-7.106-8.514h4.948v3.618s.342 2.685 2.08 2.685c1.736 0 1.946-2.553 1.946-2.553v-3.685c-.237-.42-1.868-1.605-1.868-1.605-.632-.42-1.364-.98-3.316-2.289-2.395-1.606-3.447-3.316-3.447-3.316-1.527-2.42-1.092-8.17-.264-9.763.336-.646 1.58-2.684 4.5-2.684 2.922 0 4.737 1.894 4.737 1.894v-1.579h4.658v19.264c0 9-6.868 8.526-6.868 8.526" fill="#fff"/><path d="M133.071 150.903s-.21-2.344-2.052-2.369c-1.974-.026-2.448 2.106-2.448 2.106v6.658s.053.868.553 1.421c.5.552 3.237 2.026 3.947 2.658zm-1.947 22.08c-8.21-.159-7.106-8.514-7.106-8.514h4.948v3.618s.342 2.685 2.08 2.685c1.736 0 1.946-2.553 1.946-2.553v-3.685c-.237-.42-1.868-1.605-1.868-1.605-.632-.42-1.364-.98-3.316-2.289-2.395-1.606-3.447-3.316-3.447-3.316-1.527-2.42-1.092-8.17-.264-9.763.336-.646 1.58-2.684 4.5-2.684 2.922 0 4.737 1.894 4.737 1.894v-1.579h4.658v19.264c0 9-6.868 8.526-6.868 8.526z" fill="none" stroke="#fff" stroke-width=".25" stroke-miterlimit="10"/><path d="M121.998 179.846c-.239 1.118-.929 1.31-1.351 1.31-1.379 0-1.59-2.034-1.59-2.917 0-1.352.441-2.64 1.456-2.64.144 0 1.131 0 1.562 1.416l1.303-.405c-.096-.404-.182-.808-.527-1.287-.412-.576-1.092-1.14-2.165-1.14-1.342 0-3.105.916-3.105 3.992 0 2.82 1.428 4.268 3.133 4.268 1.935.022 2.511-1.809 2.596-2.182z" fill="#fff"/><path d="M121.998 179.846c-.239 1.118-.929 1.31-1.351 1.31-1.379 0-1.59-2.034-1.59-2.917 0-1.352.441-2.64 1.456-2.64.144 0 1.131 0 1.562 1.416l1.303-.405c-.096-.404-.182-.808-.527-1.287-.412-.576-1.092-1.14-2.165-1.14-1.342 0-3.105.916-3.105 3.992 0 2.82 1.428 4.268 3.133 4.268 1.935.022 2.511-1.809 2.596-2.182z" fill="none" stroke="#fff" stroke-width=".2"/><path d="M125.363 177.164c0-.362.028-1.884 1.015-1.884.997 0 1.026 1.554 1.026 2.044 0 .51-.106 1.83-1.006 1.83-.853 0-1.035-1.074-1.035-1.99m3.334.032c0-2.086-1.179-2.959-2.299-2.959-1.026 0-2.328.756-2.328 2.948 0 1.905.977 2.917 2.193 2.917 1.926 0 2.434-1.586 2.434-2.906" fill="#fff"/><path d="M125.363 177.164c0-.362.028-1.884 1.015-1.884.997 0 1.026 1.554 1.026 2.044 0 .51-.106 1.83-1.006 1.83-.853 0-1.035-1.074-1.035-1.99zm3.334.032c0-2.086-1.179-2.959-2.299-2.959-1.026 0-2.328.756-2.328 2.948 0 1.905.977 2.917 2.193 2.917 1.926 0 2.434-1.586 2.434-2.906z" fill="none" stroke="#fff" stroke-width=".2"/><path d="M133.78 174.333h-1.294v3.959c0 .31-.067.65-.47.65-.383 0-.728-.255-1.188-.724v-3.885h-1.293v5.663h1.293v-.777c.25.266.825.872 1.773.872.795 0 1.178-.51 1.178-1.447z" fill="#fff"/><path d="M133.78 174.333h-1.294v3.959c0 .31-.067.65-.47.65-.383 0-.728-.255-1.188-.724v-3.885h-1.293v5.663h1.293v-.777c.25.266.825.872 1.773.872.795 0 1.178-.51 1.178-1.447z" fill="none" stroke="#fff" stroke-width=".2"/><path d="M137.846 178.346c-.163.212-.469.553-.9.553-.958 0-1.006-1.341-1.006-1.767 0-.468.124-1.703 1.015-1.703.46 0 .747.362.891.543zm1.284 4.055v-8.068h-1.293v.649c-.163-.191-.633-.745-1.399-.745-1.159 0-1.907 1.288-1.907 2.917 0 1.639.767 2.937 1.917 2.937.24 0 .823-.042 1.39-.745v3.055z" fill="#fff"/><path d="M137.846 178.346c-.163.212-.469.553-.9.553-.958 0-1.006-1.341-1.006-1.767 0-.468.124-1.703 1.015-1.703.46 0 .747.362.891.543zm1.284 4.055v-8.068h-1.293v.649c-.163-.191-.633-.745-1.399-.745-1.159 0-1.907 1.288-1.907 2.917 0 1.639.767 2.937 1.917 2.937.24 0 .823-.042 1.39-.745v3.055z" fill="none" stroke="#fff" stroke-width=".2"/><path d="M143.95 182.348l-1.83-1.64h-.969l1.275 1.64zm-.653-4.577c-.048 1.118-.699 1.352-1.063 1.352-.43 0-.968-.31-1.025-1.352zm-2.088-.862c.048-1.3.7-1.522 1.073-1.522.651 0 .9.553 1.015.787l1.054-.49c-.173-.351-.709-1.447-2.079-1.447-1.293 0-2.424 1.075-2.424 2.99 0 1.725.968 2.864 2.376 2.864 1.112 0 1.83-.691 2.09-1.564.181-.628.162-1.128.133-1.618z" fill="#fff"/><path d="M143.95 182.348l-1.83-1.64h-.969l1.275 1.64zm-.653-4.577c-.048 1.118-.699 1.352-1.063 1.352-.43 0-.968-.31-1.025-1.352zm-2.088-.862c.048-1.3.7-1.522 1.073-1.522.651 0 .9.553 1.015.787l1.054-.49c-.173-.351-.709-1.447-2.079-1.447-1.293 0-2.424 1.075-2.424 2.99 0 1.725.968 2.864 2.376 2.864 1.112 0 1.83-.691 2.09-1.564.181-.628.162-1.128.133-1.618z" fill="none" stroke="#fff" stroke-width=".2"/><path d="M148.84 182.284l2.912-5.333h.02v5.333h1.398v-7.951h-1.39l-3.007 5.545h-.02v-5.545h-1.398v7.95z" fill="#fff"/><path d="M148.84 182.284l2.912-5.333h.02v5.333h1.398v-7.951h-1.39l-3.007 5.545h-.02v-5.545h-1.398v7.95z" fill="none" stroke="#fff" stroke-width=".2"/><path d="M157.06 177.245c-.48-.101-1.75-.373-1.75-1.26 0-.453.317-.675.616-.675.463 0 .953.433 1.134.595zm1.16-1.663a4.5 4.5 0 0 1 .174-1.1h-1.18a4.732 4.732 0 0 0-.108.555c-.227-.221-.662-.644-1.415-.644-.808 0-1.543.534-1.543 1.48 0 1.402 1.389 2.007 2.912 2.138v.16c0 .525-.335.848-.816.848-.536 0-.934-.303-1.234-.746l-.725.675a2.385 2.385 0 0 0 1.977.988c.835 0 1.959-.302 1.959-1.844z" fill="#fff"/><path d="M157.06 177.245c-.48-.101-1.75-.373-1.75-1.26 0-.453.317-.675.616-.675.463 0 .953.433 1.134.595zm1.16-1.663a4.5 4.5 0 0 1 .174-1.1h-1.18a4.732 4.732 0 0 0-.108.555c-.227-.221-.662-.644-1.415-.644-.808 0-1.543.534-1.543 1.48 0 1.402 1.389 2.007 2.912 2.138v.16c0 .525-.335.848-.816.848-.536 0-.934-.303-1.234-.746l-.725.675a2.385 2.385 0 0 0 1.977.988c.835 0 1.959-.302 1.959-1.844z" fill="none" stroke="#fff" stroke-width=".2"/><path d="M162.358 178.601l-.125.085c-.43.298-.689.436-1.024.436-.47 0-.767-.33-.767-.66 0-.5.498-.617 1.025-.745.68-.159 1.85-.426 1.85-1.66 0-.788-.537-1.82-2.118-1.82-1.189 0-1.763.65-2.089 1.032l.786.607c.287-.245.69-.586 1.322-.586.373 0 .805.15.805.565 0 .436-.432.585-.949.681-.556.107-1.839.404-1.839 1.8 0 .957.823 1.755 1.964 1.755.93 0 1.532-.49 1.906-.798z" fill="#fff"/><path d="M162.358 178.601l-.125.085c-.43.298-.689.436-1.024.436-.47 0-.767-.33-.767-.66 0-.5.498-.617 1.025-.745.68-.159 1.85-.426 1.85-1.66 0-.788-.537-1.82-2.118-1.82-1.189 0-1.763.65-2.089 1.032l.786.607c.287-.245.69-.586 1.322-.586.373 0 .805.15.805.565 0 .436-.432.585-.949.681-.556.107-1.839.404-1.839 1.8 0 .957.823 1.755 1.964 1.755.93 0 1.532-.49 1.906-.798z" fill="none" stroke="#fff" stroke-width=".2"/><path d="M166.02 181.826v-1.83h.9v-1.033h-.9v-3.012c0-.49.41-.522.9-.533v-1.17c-.728-.033-1.188-.022-1.552.255-.451.33-.642.883-.642 1.448v3.012h-.775v1.032h.775v1.831z" fill="#fff"/><path d="M166.02 181.826v-1.83h.9v-1.033h-.9v-3.012c0-.49.41-.522.9-.533v-1.17c-.728-.033-1.188-.022-1.552.255-.451.33-.642.883-.642 1.448v3.012h-.775v1.032h.775v1.831z" fill="none" stroke="#fff" stroke-width=".2"/><path d="M121.071 132.763c.721 0 1.25.112 1.617.368.416.305.672.817.672 1.377 0 .512-.24.992-.64 1.265-.368.256-.833.368-1.585.368h-.576v-3.378zm4.786-5.778h-1.969l-3.04 4.37h-.289v-4.37h-1.616v10.676h1.888c1.377 0 2.145-.176 2.817-.624.784-.528 1.281-1.504 1.281-2.513 0-1.49-.944-2.69-2.369-2.993zm3.214 9.155v-2.561h4.146v-1.52h-4.146v-3.554h4.274v-1.52h-5.89v10.677h5.89v-1.521zm10.401-1.424l-1.648-3.617h3.233zm-2.32-5.138l-1.2-2.593h-1.73l5.282 11.348 5.09-11.348h-1.76l-1.12 2.593zm11.119-1.073c1.297 0 2.097.208 2.85.769.928.688 1.456 1.793 1.456 3.04 0 1.265-.544 2.402-1.456 3.074-.704.528-1.553.753-2.85.753h-.72v-7.636zm-2.337 9.156h2.241c1.842 0 2.914-.288 3.954-1.041 1.329-.975 2.065-2.497 2.065-4.29 0-1.824-.736-3.312-2.145-4.321-1.072-.784-2-1.025-3.906-1.025h-2.209zm11.889-1.521v-2.561h4.146v-1.52h-4.146v-3.554h4.273v-1.52h-5.89v10.677h5.89v-1.521zm8.512-3.377c.721 0 1.249.112 1.617.368.416.305.672.817.672 1.377 0 .512-.24.992-.641 1.265-.368.256-.832.368-1.584.368h-.576v-3.378zm4.786-5.778h-1.969l-3.041 4.37h-.288v-4.37h-1.617v10.676h1.889c1.377 0 2.145-.176 2.817-.624.784-.528 1.28-1.504 1.28-2.513 0-1.49-.944-2.69-2.368-2.993zm6.335 8.307c-.496.816-.864 1.057-1.6 1.057-.88 0-1.553-.561-1.553-1.329 0-.352.16-.657.511-.897.305-.208.305-.208 1.713-.784 1.73-.72 2.497-1.681 2.497-3.153 0-1.953-1.456-3.41-3.424-3.41-1.169 0-2.162.513-2.802 1.425-.352.512-.496.929-.609 1.729l1.633.368c.08-.641.145-.897.305-1.168.271-.513.88-.833 1.536-.833.992 0 1.745.753 1.745 1.777 0 .608-.257 1.072-.736 1.408-.368.241-.368.241-1.809.849-1.489.624-2.193 1.504-2.193 2.705 0 1.601 1.392 2.833 3.201 2.833 1.28 0 2.161-.544 2.882-1.793zm6.047 2.289l-1.97-3.954-1.054.433 1.63 4.065zM99.93 117.98c-1.009.833-1.825 1.169-2.897 1.169-2.177 0-3.906-1.792-3.906-4.065 0-2.225 1.73-3.986 3.922-3.986 1.056 0 1.84.336 2.881 1.216v-1.937c-.944-.543-1.873-.8-2.897-.8-3.058 0-5.522 2.466-5.522 5.49 0 3.105 2.512 5.602 5.634 5.602 1.04 0 1.825-.224 2.785-.785zm8.43-1.697v4.178h1.618v-10.676h-1.617v4.977h-4.594v-4.977h-1.617v10.676h1.617v-4.178zm5.263-1.136c0-1.2.384-2.146 1.184-2.913.753-.72 1.76-1.136 2.737-1.136 2.24 0 4.002 1.76 4.002 4.017 0 2.273-1.73 4.034-3.954 4.034-2.208 0-3.97-1.762-3.97-4.002m9.54-.032c0-3.072-2.512-5.537-5.634-5.537-1.536 0-3.121.718-4.177 1.887-.896.994-1.345 2.242-1.345 3.699 0 3.007 2.545 5.504 5.602 5.504 3.057 0 5.555-2.512 5.555-5.553m3.628-5.33h-1.617v10.676h1.617zm10.451 8.195c-1.01.833-1.825 1.169-2.897 1.169-2.177 0-3.906-1.792-3.906-4.065 0-2.225 1.729-3.986 3.922-3.986 1.056 0 1.84.336 2.88 1.216v-1.937c-.943-.543-1.872-.8-2.896-.8-3.057 0-5.522 2.466-5.522 5.49 0 3.105 2.513 5.602 5.634 5.602 1.04 0 1.824-.224 2.785-.785zm3.628.96v-2.56h4.147v-1.52h-4.146v-3.554h4.273v-1.52h-5.89v10.676h5.89v-1.521zm14.402-1.424l-1.648-3.617h3.233zm-2.32-5.138l-1.201-2.592h-1.73l5.283 11.348 5.09-11.348h-1.761l-1.12 2.592zm11.232.944l2.896 7.651 2.786-7.65 2.945 7.138h1.745l-4.77-11.365-2.737 7.572-2.865-7.572-4.53 11.365h1.745zM179 117.516l-1.648-3.617h3.233zm-2.32-5.138l-1.201-2.592h-1.729l5.282 11.348 5.09-11.348h-1.761l-1.12 2.592zm10.912 3.186c.72 0 1.249.11 1.617.368.416.303.672.816.672 1.375 0 .514-.24.994-.641 1.266-.368.256-.832.368-1.584.368h-.576v-3.378zm4.786-5.778h-1.97l-3.04 4.368h-.288v-4.368h-1.617v10.674h1.889c1.377 0 2.145-.174 2.817-.623.784-.529 1.28-1.505 1.28-2.513 0-1.49-.944-2.69-2.368-2.992zm3.933 1.52c1.297 0 2.097.208 2.85.769.927.687 1.456 1.792 1.456 3.04 0 1.265-.544 2.4-1.456 3.074-.704.528-1.553.752-2.85.752h-.72v-7.635zm-2.337 9.155h2.242c1.84 0 2.913-.288 3.953-1.04 1.33-.976 2.066-2.497 2.066-4.29 0-1.824-.736-3.313-2.146-4.321-1.072-.784-2-1.025-3.905-1.025h-2.21zm15.01-2.369c-.496.816-.864 1.057-1.6 1.057-.88 0-1.553-.56-1.553-1.328 0-.353.16-.657.511-.897.305-.208.305-.208 1.713-.784 1.73-.721 2.497-1.681 2.497-3.153 0-1.954-1.456-3.41-3.424-3.41-1.169 0-2.162.512-2.802 1.424-.352.513-.496.929-.609 1.73l1.633.368c.08-.641.145-.897.305-1.17.271-.511.88-.831 1.536-.831.992 0 1.745.752 1.745 1.776 0 .609-.257 1.072-.736 1.409-.368.24-.368.24-1.809.848-1.489.624-2.193 1.505-2.193 2.705 0 1.6 1.392 2.833 3.201 2.833 1.28 0 2.161-.544 2.882-1.792zm-76.479-33.315v-2.85h-13.44l6.96 8.4c2.79 3.39 3.51 4.62 3.51 5.88 0 1.86-1.5 3.3-3.42 3.3-1.14 0-2.19-.51-2.79-1.38-.39-.57-.54-1.08-.69-2.19h-3c.21 1.71.48 2.61 1.17 3.63 1.14 1.74 2.97 2.7 5.22 2.7 3.66 0 6.45-2.64 6.45-6.06 0-2.16-.84-3.69-4.29-7.77l-3.12-3.66zm7.651 12.78c-.811-1.53-1.26-3.51-1.26-5.52 0-2.19.42-4.08 1.26-5.7.689-1.29 1.68-1.98 2.85-1.98 1.139 0 2.129.69 2.82 1.98.809 1.59 1.26 3.51 1.26 5.61 0 2.1-.451 4.11-1.26 5.61-.721 1.29-1.681 1.98-2.851 1.98s-2.13-.69-2.82-1.98m8.04 1.59c1.23-1.89 1.86-4.35 1.86-7.23 0-2.85-.63-5.31-1.86-7.2-1.23-1.89-3.24-3.12-5.19-3.12-1.98 0-3.99 1.2-5.22 3.12-1.26 1.95-1.86 4.32-1.86 7.35 0 5.85 3.03 10.2 7.08 10.2 1.95 0 3.96-1.2 5.19-3.12m18.089-14.37v-2.85h-13.439l6.96 8.4c2.79 3.39 3.51 4.62 3.51 5.88 0 1.86-1.5 3.3-3.42 3.3-1.14 0-2.19-.51-2.79-1.38-.39-.57-.54-1.08-.69-2.19h-3c.21 1.71.48 2.61 1.17 3.63 1.14 1.74 2.97 2.7 5.22 2.7 3.66 0 6.45-2.64 6.45-6.06 0-2.16-.84-3.69-4.29-7.77l-3.12-3.66zm4.321 14.34l1.65 2.82h4.829v-20.01h-3.03v17.19z" fill="#fff"/></g></svg>