<svg width="20" height="26" viewBox="0 0 25 21" xmlns="http://www.w3.org/2000/svg"><title>twitter</title><path d="M25 2.516c-.636 1.02-1.483 1.932-2.542 2.734v.656c0 3.828-1.333 7.3-4 10.418C15.794 19.44 12.254 21 7.84 21 5.015 21 2.402 20.198 0 18.594c.565.073.97.11 1.218.11 2.366 0 4.485-.766 6.356-2.298-1.094-.036-2.083-.392-2.966-1.066-.883-.675-1.483-1.54-1.8-2.598.423.073.74.11.953.11.354 0 .813-.073 1.378-.22-1.166-.254-2.145-.865-2.94-1.83-.794-.967-1.192-2.088-1.192-3.364v-.055c.777.437 1.554.656 2.33.656C1.82 7.017 1.06 5.54 1.06 3.61c0-.912.23-1.787.688-2.626 2.72 3.464 6.232 5.305 10.54 5.524-.07-.255-.106-.656-.106-1.203 0-1.495.495-2.753 1.483-3.774C14.655.51 15.872 0 17.32 0s2.684.565 3.708 1.695c1.06-.182 2.153-.62 3.283-1.312-.352 1.276-1.11 2.26-2.276 2.953 1.095-.11 2.083-.383 2.966-.82z" fill="#ffffff" fill-rule="evenodd"></path></svg>