<svg width="20" height="26" viewBox="0 0 23 23" xmlns="http://www.w3.org/2000/svg"><title>linkedin</title><path d="M5.226 7.473H.286V23h4.94V7.473zM5.54 2.68C5.525 1.16 4.477 0 2.785 0 1.108 0 0 1.16 0 2.68c0 1.488 1.063 2.678 2.725 2.678h.03c1.722 0 2.8-1.19 2.785-2.68zM23 14.1c0-4.762-2.426-6.987-5.675-6.987-2.665 0-3.833 1.55-4.477 2.617h.03V7.473H7.95S8.01 8.93 7.95 23h4.928v-8.664c0-.47.045-.925.164-1.27.36-.924 1.168-1.88 2.53-1.88 1.783 0 2.502 1.426 2.502 3.51V23H23v-8.9z" fill="#ffffff" fill-rule="evenodd"></path></svg>