<svg width="20" height="26" viewBox="0 0 21 22" xmlns="http://www.w3.org/2000/svg"><title>pinterest</title><path d="M10.5.5c2.906 0 5.383 1.023 7.43 3.07C19.977 5.617 21 8.094 21 11c0 2.906-1.023 5.383-3.07 7.43-2.047 2.047-4.524 3.07-7.43 3.07-2.906 0-5.383-1.023-7.43-3.07C1.023 16.383 0 13.906 0 11c0-2.906 1.023-5.383 3.07-7.43C5.117 1.523 7.594.5 10.5.5zm6.375 16.875C18.625 15.625 19.5 13.5 19.5 11s-.875-4.625-2.625-6.375S13 2 10.5 2s-4.625.875-6.375 2.625S1.5 8.5 1.5 11s.875 4.625 2.625 6.375c.563.563 1.313 1.094 2.25 1.594 0-.095.016-.22.047-.376.03-.157.062-.282.094-.375l1.36-5.72c-.25-.47-.376-1.03-.376-1.688 0-.78.203-1.43.61-1.945.406-.515.89-.773 1.453-.773.437 0 .78.156 1.03.47.25.31.376.686.376 1.123 0 .282-.056.625-.165 1.032-.11.405-.25.874-.422 1.405-.172.53-.29.953-.352 1.266-.124.563-.022 1.04.306 1.43.328.39.773.586 1.336.586.97 0 1.765-.54 2.39-1.617.626-1.08.938-2.4.938-3.962 0-1.187-.383-2.148-1.148-2.883-.766-.734-1.836-1.1-3.21-1.1-1.533 0-2.775.49-3.728 1.475-.953.985-1.43 2.164-1.43 3.54 0 .812.235 1.5.704 2.062.156.187.203.375.14.562-.03.063-.078.203-.14.422-.063.22-.094.36-.094.422-.094.28-.266.375-.516.28-1.437-.592-2.156-1.936-2.156-4.03 0-1.656.672-3.164 2.015-4.523 1.344-1.36 3.172-2.04 5.485-2.04 1.937 0 3.53.602 4.78 1.805 1.25 1.203 1.876 2.617 1.876 4.242 0 2.094-.523 3.813-1.57 5.157-1.047 1.343-2.414 2.014-4.102 2.014-.562 0-1.086-.125-1.57-.375s-.82-.563-1.008-.938c-.375 1.625-.61 2.594-.703 2.906-.156.47-.266.766-.328.89.72.188 1.453.282 2.203.282 2.5 0 4.625-.875 6.375-2.625z" fill="#ffffff" fill-rule="evenodd"></path></svg>