<svg xmlns="http://www.w3.org/2000/svg" width="20" height="26" viewBox="0 0 512 512"><title>instagram</title><g fill="#FFF"><path d="M256 49.47c67.266 0 75.233.258 101.797 1.47 24.562 1.12 37.9 5.224 46.778 8.673 11.76 4.57 20.15 10.03 28.966 18.845 8.816 8.815 14.276 17.208 18.846 28.966 3.45 8.877 7.554 22.216 8.674 46.778 1.212 26.564 1.47 34.532 1.47 101.798s-.258 75.233-1.47 101.797c-1.12 24.562-5.224 37.9-8.674 46.778-4.57 11.76-10.03 20.15-18.844 28.966-8.816 8.816-17.208 14.276-28.966 18.846-8.877 3.45-22.217 7.554-46.778 8.674-26.56 1.212-34.527 1.468-101.797 1.468s-75.236-.257-101.796-1.468c-24.562-1.12-37.9-5.225-46.778-8.674-11.76-4.57-20.15-10.03-28.966-18.845-8.815-8.814-14.275-17.207-18.845-28.965-3.45-8.877-7.554-22.216-8.674-46.778-1.21-26.565-1.467-34.532-1.467-101.798s.257-75.234 1.468-101.798c1.122-24.562 5.226-37.9 8.675-46.778 4.57-11.76 10.03-20.15 18.845-28.966 8.815-8.815 17.208-14.275 28.966-18.845 8.877-3.45 22.216-7.554 46.778-8.674 26.563-1.213 34.53-1.47 101.796-1.47m0-45.39c-68.418 0-76.997.29-103.866 1.516-26.814 1.223-45.127 5.482-61.15 11.71-16.567 6.438-30.616 15.052-44.62 29.057-14.006 14.005-22.62 28.055-29.058 44.62-6.228 16.025-10.486 34.337-11.71 61.15C4.37 179.004 4.08 187.584 4.08 256c0 68.418.29 76.996 1.515 103.866 1.223 26.815 5.482 45.127 11.71 61.15 6.438 16.567 15.052 30.616 29.057 44.62 14.005 14.006 28.055 22.62 44.62 29.058 16.025 6.228 34.337 10.486 61.15 11.71 26.87 1.226 35.45 1.516 103.867 1.516s76.995-.29 103.865-1.516c26.814-1.223 45.127-5.482 61.15-11.71 16.567-6.438 30.616-15.052 44.62-29.057 14.006-14.005 22.62-28.055 29.058-44.62 6.228-16.025 10.486-34.337 11.71-61.15 1.226-26.87 1.516-35.45 1.516-103.867s-.29-76.997-1.517-103.866c-1.224-26.815-5.482-45.127-11.71-61.15-6.438-16.567-15.052-30.616-29.057-44.62-14.005-14.006-28.055-22.62-44.62-29.058-16.025-6.228-34.337-10.486-61.15-11.71C332.995 4.37 324.417 4.08 256 4.08z"></path><path d="M256 126.635c-71.446 0-129.365 57.918-129.365 129.365S184.555 385.365 256 385.365 385.365 327.445 385.365 256 327.445 126.635 256 126.635zm0 213.34c-46.377 0-83.974-37.597-83.974-83.975s37.596-83.973 83.974-83.973 83.973 37.596 83.973 83.973-37.596 83.974-83.973 83.974z"></path><circle cx="390.476" cy="121.524" r="30.23"></circle></g></svg>