<svg width="182" height="15" viewBox="0 0 825 68" xmlns="http://www.w3.org/2000/svg" xmlns:xlink="http://www.w3.org/1999/xlink"><title>Footer Logo</title><g transform="translate(-8 -10)" fill="none" fill-rule="evenodd"><path d="M721.565 152.778c0 5.857-4.737 9.922-10.738 9.922-4.89 0-9.052-2.057-12.21-6.227l2.318-2.06c2.156 2.797 5.05 5.277 9.892 5.277 3.685 0 7.58-2.637 7.58-6.912 0-6.702-7.894-7.443-13.264-10.767-2.735-1.687-5-3.852-5-7.6 0-5.75 4.58-9.71 10.475-9.71 4.737 0 7.736 2.22 9.422 3.696l-2 2.323c-2.16-1.9-4.263-3.008-7.317-3.008-4.104 0-7.42 2.532-7.42 6.542 0 5.594 7.42 6.335 12.686 9.604 3.05 1.9 5.575 4.645 5.575 8.92zm-49.79 6.387h17.37v3.007h-20.53V125.23h20.003v3.006h-16.844v12.035h13.16v3.008h-13.16v15.887zm-16.473-5.28l2.26 2.005c-3.155 4.065-8.525 6.81-14.21 6.81-11 0-18.948-8.075-18.948-19 0-10.66 7.844-19 18.475-19 5.265 0 10.156 2.11 13.367 5.65l-2.156 2.16c-2.577-2.85-6.63-4.798-11.21-4.798-8.845 0-15.317 7.12-15.317 15.99 0 8.97 6.472 15.988 15.632 15.988 5.05 0 9.527-2.425 12.107-5.805zm-45.9-28.656h3.16v36.942h-2.104l-24.737-30.768v30.768h-3.158V125.23h2.104l24.737 30.768v-30.77zm-56.315 33.935h17.368v3.007h-20.53V125.23h20.004v3.006h-16.843v12.035h13.157v3.008h-13.157v15.887zm-23.95-3.115c-2.632 2.057-6.053 3.115-11.21 3.115h-7.21v-30.93h7.21c5.157 0 8.578 1.06 11.21 3.116 3.63 2.85 5.79 7.39 5.79 12.35s-2.16 9.5-5.79 12.35zm1.63-27.34c-2.998-2.214-6.84-3.48-12.68-3.48H507.56v36.942h10.526c5.84 0 9.683-1.267 12.682-3.485 4.528-3.377 7.315-8.864 7.315-14.986s-2.787-11.61-7.315-14.99zm-41.106 33.462h3.16V125.23h-3.16v36.942zm-12.103-9.394c0 5.857-4.737 9.922-10.74 9.922-4.893 0-9.05-2.057-12.207-6.227l2.316-2.06c2.156 2.797 5.05 5.277 9.892 5.277 3.688 0 7.58-2.637 7.58-6.912 0-6.702-7.893-7.443-13.26-10.767-2.74-1.687-5.003-3.852-5.003-7.6 0-5.75 4.58-9.71 10.474-9.71 4.736 0 7.738 2.22 9.42 3.696l-1.998 2.323c-2.16-1.9-4.264-3.008-7.315-3.008-4.107 0-7.423 2.532-7.423 6.542 0 5.594 7.423 6.335 12.686 9.604 3.05 1.9 5.577 4.645 5.577 8.92zm-49.79 6.387h17.37v3.007H424.61V125.23h19.997v3.006h-16.84v12.035h13.158v3.008h-13.16v15.887zM390.13 140.27v-12.034h9.266c2.633 0 4.05.583 5.106 1.585 1.21 1.11 1.947 2.69 1.947 4.434 0 1.742-.74 3.324-1.948 4.435-1.055.998-2.473 1.58-5.106 1.58h-9.265zm16.584.633c1.787-1.635 2.894-4.012 2.894-6.65 0-2.64-1.107-5.012-2.894-6.65-1.634-1.477-3.79-2.374-7.158-2.374h-12.58v36.942h3.155v-18.894h6.214l14.21 18.894h3.79l-14.21-18.894c3.05-.105 5.05-.95 6.58-2.375zM339.29 159.85c-5.948 0-10.16-3.852-10.16-8.284 0-3.695 2.37-6.388 6.42-8.976l13.372 12.88c-2.002 2.585-5.16 4.38-9.63 4.38zm-7.317-27.654c0-2.745 2.052-4.645 4.685-4.645 2.633 0 4.685 1.9 4.685 4.646 0 2.903-2.738 4.96-5.423 6.755l-.58-.58c-1.684-1.637-3.367-3.85-3.367-6.174zm22.895 14.512c0-2.585-.422-5.225-.84-6.912l-2.95.685c.262 1.216.79 3.59.79 6.228 0 2.06-.473 4.275-1.368 6.227l-12.473-11.98c3.208-2.004 6.315-4.75 6.315-8.76 0-3.96-2.947-7.494-7.684-7.494-4.74 0-7.687 3.536-7.687 7.496 0 3.007 1.79 5.805 4.372 8.337-3.79 2.375-7.21 5.805-7.21 11.033 0 6.437 5.998 11.134 13.16 11.134 5.207 0 9.156-2.113 11.786-5.225l4.894 4.697h4.16l-7.42-7.072c1.418-2.532 2.156-5.49 2.156-8.392zm-70.32 12.457h17.37v3.007h-20.526V125.23h3.156v33.935zm-32.63 0h17.367v3.007H248.76V125.23h20v3.006h-16.842v12.035h13.156v3.008h-13.156v15.887zm-38.423-33.936h24.212v3.006H227.18v33.936h-3.158v-33.936h-10.527v-3.007zM188.6 159.69c-8.897 0-15.16-7.23-15.16-15.99s6.263-15.988 15.16-15.988c8.894 0 15.157 7.23 15.157 15.99 0 8.758-6.263 15.988-15.158 15.988zm0-34.99c-10.423 0-18.32 8.233-18.32 19 0 10.768 7.897 19 18.32 19 10.42 0 18.313-8.232 18.313-19 0-10.767-7.893-19-18.314-19zm-33.32.53h3.16v36.942h-3.16v-18.894h-23.683v18.894h-3.16V125.23h3.16v15.04h23.683v-15.04zm677.338-50.34v1.658H808.77V74.89h2.834c3.542 0 5.04-.947 4.958-4.34L814.83 19.1l-22.273 57.45h-.863L768.947 21.7l-1.732 45.14c-.235 5.762.788 8.05 5.51 8.05h2.99v1.658h-20.383V74.89h2.833c4.014 0 5.59-2.21 5.824-8.127l1.888-46.8c.314-5.05-4.25-6.154-7.556-6.154v-1.737h16.214l20.462 50.27 19.047-50.27h16.527v1.736c-3.307 0-7.713 1.104-7.556 6.154l1.81 50.587c.158 3.393 1.42 4.34 4.958 4.34h2.834zM732.036 12.073h20.54v1.658h-2.36c-4.486 0-6.218 2.288-6.218 7.892v30.066c0 15.943-9.52 25.964-25.028 25.964-15.426 0-25.184-9.392-25.184-25.49v-34.09c0-3.394-1.416-4.34-4.958-4.34h-2.834v-1.66h23.77v1.66h-2.834c-3.543 0-4.958.946-4.958 4.34v34.72c0 12.39 7.556 20.6 18.73 20.6 12.906 0 19.992-8.838 19.992-21.86V21.62c0-5.525-.945-7.89-5.667-7.89h-2.99v-1.66zm-96.49 58.478V18.074c0-3.395-1.418-4.342-4.957-4.342h-2.835v-1.657h47.062V25.49h-.785c-1.18-7.26-5.43-10.498-15.033-10.498h-15.27v25.885h10.233c5.35 0 10.386-.553 11.57-8.048h.787v18.858h-.788c-1.26-7.576-6.22-8.048-11.57-8.048H643.73v25.806c0 3.47 2.046 4.182 5.036 4.182h14.325c8.344 0 12.593-4.182 13.773-11.758h.79v14.678h-49.898V74.89h2.834c3.538 0 4.956-.947 4.956-4.34zm-55.96-22.492l9.918-24.15 9.68 24.15h-19.598zm37.306 22.175l-24.32-60.054h-1.022l-22.194 54.924c-3.464 8.524-5.432 9.786-9.92 9.786h-.783v1.658h18.808V74.89h-1.336c-5.745 0-7.003-1.262-3.068-10.89l4.327-10.575h23.926l7.084 17.598c1.177 2.92-.947 3.867-4.094 3.867h-1.733v1.658h22.43V74.89h-1.886c-3.15 0-4.957-1.658-6.218-4.657zM555.895 13.73c-4.484 0-6.217 2.288-6.217 7.892v56.03h-.706l-45.963-54.53V67c0 5.523.943 7.89 5.666 7.89h2.99v1.658h-20.54V74.89h2.36c4.483 0 6.215-2.288 6.215-7.89V20.752c0-5.05-5.192-6.944-8.496-6.944v-1.737h14.32l40.85 49.558V21.623c0-5.525-.944-7.89-5.667-7.89h-2.99v-1.66h20.54v1.66h-2.362zm-77.362 48.14h.788v14.678h-49.898V74.89h2.834c3.54 0 4.958-.947 4.958-4.34V18.074c0-3.395-1.42-4.342-4.958-4.342h-2.834v-1.657h47.062V25.49h-.784c-1.18-7.26-5.432-10.498-15.034-10.498h-15.27v25.885h10.234c5.35 0 10.39-.553 11.57-8.048h.787v18.858h-.788c-1.26-7.576-6.22-8.048-11.57-8.048h-10.233v25.806c0 3.47 2.05 4.182 5.04 4.182h14.324c8.342 0 12.593-4.182 13.773-11.758zm-84.685-49.797h23.766v1.658h-2.833c-3.542 0-4.957.948-4.957 4.343V70.55c0 3.393 1.415 4.34 4.958 4.34h2.834v1.658h-23.766V74.89h2.834c3.54 0 4.957-.947 4.957-4.34V43.877h-34.316V70.55c0 3.393 1.418 4.34 4.958 4.34h2.833v1.658H351.35V74.89h2.83c3.542 0 4.96-.947 4.96-4.34V18.074c0-3.395-1.418-4.342-4.96-4.342h-2.83v-1.657h23.765v1.658h-2.833c-3.54 0-4.958.948-4.958 4.343V40.8h34.315V18.072c0-3.395-1.42-4.342-4.958-4.342h-2.834v-1.657zm-82.56 57.767V14.992H300.66c-7.95 0-11.726 3.395-12.987 10.972h-.785v-13.89h56.98v13.89h-.787c-1.18-7.498-4.96-10.972-12.987-10.972H319.47v54.77c0 4.18 1.416 5.128 5.668 5.128h3.7v1.658H301.92V74.89h3.305c4.644 0 6.062-.947 6.062-5.05zM245.41 48.058l9.92-24.15 9.68 24.15h-19.6zm24.715 26.832h-1.732v1.658h22.43V74.89h-1.887c-3.15 0-4.958-1.658-6.22-4.657L258.4 10.18h-1.023L235.18 65.103c-3.463 8.524-5.43 9.786-9.918 9.786h-.784v1.658h18.808V74.89h-1.336c-5.746 0-7.007-1.262-3.07-10.89l4.328-10.575h23.926l7.083 17.598c1.18 2.92-.945 3.867-4.092 3.867zm-72.012 1.658h-49.898V74.89h2.833c3.54 0 4.958-.947 4.958-4.34V18.074c0-3.395-1.418-4.342-4.958-4.342h-2.833v-1.657h47.062V25.49h-.785c-1.18-7.26-5.43-10.498-15.033-10.498h-15.27v25.885h10.232c5.35 0 10.387-.553 11.57-8.048h.787v18.858h-.788c-1.262-7.576-6.22-8.048-11.57-8.048H164.19v25.806c0 3.47 2.046 4.182 5.036 4.182h14.325c8.344 0 12.593-4.182 13.773-11.758h.79v14.678zM123.58 70.55V43.877H89.263V70.55c0 3.393 1.415 4.34 4.957 4.34h2.835v1.658h-23.77V74.89h2.834c3.542 0 4.957-.947 4.957-4.34V18.074c0-3.395-1.415-4.342-4.958-4.342h-2.834v-1.657h23.77v1.658H94.22c-3.54 0-4.956.948-4.956 4.343V40.8h34.315V18.072c0-3.395-1.42-4.342-4.96-4.342h-2.832v-1.657h23.766v1.658h-2.833c-3.542 0-4.957.948-4.957 4.343V70.55c0 3.393 1.415 4.34 4.958 4.34h2.834v1.658h-23.766V74.89h2.83c3.543 0 4.96-.947 4.96-4.34zM8.826 12.074H65.81v13.89h-.79c-1.18-7.497-4.957-10.97-12.984-10.97H41.41V69.76c0 4.183 1.416 5.13 5.668 5.13h3.7v1.658H23.86V74.89h3.305c4.644 0 6.062-.947 6.062-5.05V14.992H22.6c-7.95 0-11.724 3.395-12.985 10.972h-.788v-13.89zm625.156-121.068c.14.064.267.12.404.18-.137-.06-.265-.116-.404-.18zm-3.68-1.72c.416.205.843.412 1.282.618-.44-.206-.866-.413-1.28-.617zm2.006.957c.28.13.563.26.842.387l-.843-.388z" fill="#DBD5CD"></path></g></svg>