<svg xmlns="http://www.w3.org/2000/svg" width="25" height="26" viewBox="0 0 500 500"><title>tripadvisor</title><path fill="#ffffff" d="M140.4 213.525c-15.005 0-29.11 5.824-39.718 16.398-10.606 10.575-16.444 24.632-16.438 39.583.01 30.84 25.18 55.928 56.105 55.928h.065c15.06-.016 29.125-5.828 39.606-16.367 10.48-10.537 16.238-24.657 16.212-39.76-.052-30.753-25.098-55.777-55.832-55.782zm-.077 18.326v-2.5l.023 2.5c20.584.014 37.48 16.787 37.664 37.39.09 9.968-3.798 19.435-10.945 26.654-7.154 7.224-16.593 11.208-26.575 11.218-20.763-.002-37.707-16.84-37.77-37.535-.03-10.02 3.882-19.478 11.016-26.633 7.132-7.153 16.574-11.093 26.587-11.093zm229.22 93.59h.084c15.04 0 29.108-5.745 39.61-16.174 10.504-10.43 16.305-24.416 16.333-39.383.06-31.51-24.384-56.266-55.653-56.36h-.17c-31.282 0-55.828 24.756-55.88 56.358-.024 14.83 5.75 28.773 16.257 39.26 10.508 10.49 24.506 16.277 39.42 16.3zm37.804-55.696c-.05 20.596-16.9 37.36-37.562 37.367-10.082 0-19.534-3.907-26.614-11.002s-10.977-16.56-10.974-26.653c.006-20.735 16.89-37.604 37.64-37.604v-2.5l.04 2.5c9.935.01 19.308 3.934 26.396 11.046 7.166 7.193 11.1 16.728 11.075 26.848zm-37.72 53.195zM140.13 287.563h.043c10.207-.002 18.253-7.818 18.32-17.794.032-5.04-1.818-9.694-5.21-13.107-3.367-3.392-7.966-5.26-12.952-5.26-10.444.014-18.06 7.584-18.107 18.002-.024 5.035 1.792 9.653 5.116 13.003 3.288 3.312 7.827 5.143 12.79 5.156zm.043-2.5zm247.614-15.56c-.013 10.24-7.8 17.965-18.114 17.965h-.03c-4.955-.007-9.467-1.8-12.705-5.054-3.306-3.32-5.117-7.98-5.102-13.118.032-10.32 7.687-17.81 18.2-17.81 9.973.05 17.764 7.964 17.75 18.015zm75.604-63.843c-1.552-2.25-1.867-4.202-1.088-6.738 3.786-12.337 9.688-24.336 18.57-37.76l2.57-3.883-32.37.01c-10.65 0-23.322-.01-36.542-.087-2.204-.014-4.747-.72-6.635-1.844-28.476-16.94-59.545-28.327-94.985-34.813-20.393-3.733-41.148-5.626-61.692-5.626-17.508 0-35.315 1.376-52.928 4.09-40.95 6.308-76.356 19.017-108.236 38.853-1.735 1.08-4.137 1.76-6.267 1.78-9.173.08-18.355.09-25.33.09l-42.042-.015 2.54 3.873c10.27 15.654 16.295 28.505 19.535 41.67 1.92 7.8 1.443 14.263-1.546 20.957-8.898 19.93-11.327 41.716-7.22 64.75 4.876 27.335 18.85 50.923 40.415 68.213 20.442 16.392 46.023 25.418 72.03 25.418 22.143 0 43.685-6.6 62.297-19.09 6.46-4.333 12.202-9.43 18.3-14.846 2.718-2.414 5.53-4.91 8.418-7.333l.427-.36 23.262 34.782 24.494-36.533.426.254c.176.103.32.18.426.236.234.125.437.233.595.41.397.444.78.894 1.205 1.394.427.5.854 1 1.297 1.49 24.13 26.594 52.51 40.077 84.35 40.076 9.005 0 18.398-1.095 27.922-3.25 37.34-8.454 66.696-33.657 80.543-69.146 13.822-35.43 9.06-75.44-12.742-107.023zm-158.525.356c17.41-17.448 40.427-27.057 64.81-27.057v-2.5l.058 2.5c24.708.015 47.87 9.556 65.22 26.866 17.353 17.31 26.915 40.415 26.926 65.06.01 24.484-9.503 47.567-26.788 64.996-17.283 17.43-40.186 27.03-64.485 27.034-24.823-.002-48.1-9.533-65.544-26.837-17.443-17.306-27.08-40.425-27.137-65.1-.055-24.427 9.512-47.5 26.94-64.964zm-165.773-50.33l-3.046.088 2.858-1.056c37.264-13.758 75.034-20.733 112.263-20.733 37.457 0 75.406 7.062 112.793 20.99l1.874.697-1.982.267c-29.914 4.027-54.15 14.524-72.038 31.198-17.816 16.61-29.783 39.77-35.568 68.838l-.602 3.026-.384-3.063c-7.037-56.24-56.717-100.296-113.103-100.296-1.02 0-2.044.014-3.065.043zm94.727 114.907c-.016 24.417-9.626 47.472-27.06 64.92-17.434 17.445-40.47 27.06-64.867 27.077-24.58-.002-47.71-9.62-65.127-27.083-17.407-17.453-26.96-40.57-26.897-65.09.062-24.624 9.668-47.734 27.048-65.075s40.508-26.89 65.124-26.89v-2.5l.016 2.5c24.348.002 47.352 9.638 64.773 27.132 17.42 17.492 27.005 40.58 26.99 65.01z"></path></svg>